<svg viewBox="0 0 0 0" fill="none" xmlns="http://www.w3.org/2000/svg">
<g clip-path="url(#clip0)">
<path d="M2.48043 59.8174C3.20258 60.3504 4.01893 60.7893 4.80388 61.1969C14.4744 66.0876 23.2344 68.5957 34.1923 67.906C42.6697 67.373 52.089 66.0249 59.8443 62.4196C63.5493 60.6953 68.9811 57.5915 68.2275 52.6694C67.2228 46.0858 57.4267 46.8382 52.56 46.9009C44.6477 46.9636 37.8344 48.0295 29.9536 47.0576C22.4181 46.1485 7.44129 45.3333 1.5699 51.5095C-0.0313937 53.1711 -0.470964 55.8986 0.690757 57.8737C1.09893 58.6575 1.72689 59.2845 2.48043 59.8174Z" fill="#C7B4A3"/>
<path d="M10.0159 54.2683C12.2452 56.8391 15.2908 58.8142 18.462 60.2563C24.5531 63.0466 31.2723 64.4887 37.9914 64.4887C43.9884 64.4887 51.3355 64.3946 56.8301 61.6985C69.0753 55.6478 70.2998 38.248 57.4581 32.4795C49.5772 28.9368 40.6288 28.592 31.9944 28.7801C25.3381 28.9368 18.3678 29.4698 12.8731 33.1692C8.35185 36.1789 5.68303 41.6339 6.56217 47.0576C7.00174 49.8479 8.28905 52.2305 10.0159 54.2683Z" fill="#D48524"/>
<path d="M63.1725 51.3527C60.7863 53.2965 57.8035 54.2683 54.8521 55.1462C46.7828 57.5602 38.3996 59.5666 30.0164 58.9396C24.5218 58.532 19.2155 56.9959 13.9093 55.491C10.4869 54.4878 8.82284 52.9202 6.93896 49.7852C5.90284 48.0609 5.05509 46.0544 5.36907 44.0793C6.4366 37.4329 22.2611 43.3582 26.8766 43.7031C38.3996 44.5496 50.0796 43.4836 61.2258 40.4426C62.0422 40.2231 62.8899 40.0037 63.7063 40.1291C64.868 40.3485 65.7471 41.2891 66.2181 42.4177C66.3437 42.6999 66.4379 43.0134 66.5007 43.3269C67.2228 46.3052 65.5587 49.4403 63.1725 51.3527Z" fill="#CC6C23"/>
<path d="M59.9699 59.065C54.5067 61.7612 47.1282 61.8552 41.1312 61.8552C34.4121 61.8552 27.7243 60.4131 21.6017 57.6229C18.462 56.1807 15.4164 54.2056 13.1557 51.6349C11.3974 49.6284 10.1415 47.2144 9.70196 44.4242C9.0112 40.2231 10.4869 36.0221 13.2813 32.9184C13.1557 33.0124 12.9987 33.0752 12.8731 33.1692C8.35185 36.1789 5.68303 41.6339 6.56217 47.0576C7.00174 49.8792 8.28905 52.2619 10.0159 54.2683C12.2452 56.8391 15.2908 58.8142 18.462 60.2563C24.5531 63.0466 31.2723 64.4887 37.9914 64.4887C43.9884 64.4887 51.3355 64.3947 56.8301 61.6985C58.8082 60.7266 60.5037 59.4412 61.8852 57.9677C61.2886 58.3439 60.6293 58.7201 59.9699 59.065Z" fill="#CC6C23"/>
<path d="M65.4018 46.3052C63.2353 48.4684 60.3467 49.7538 57.5209 50.9138C49.7342 54.1116 41.6336 56.9645 33.219 57.2153C27.7243 57.3721 22.2611 56.3688 16.8607 55.3969C11.8056 54.4878 6.12262 52.8889 5.14929 47.0263C5.08649 46.6814 5.05509 46.3366 5.0237 46.023C4.77251 42.1982 7.31574 40.9756 11.1463 41.3204C16.9863 41.8534 22.7007 42.5118 28.6035 42.355C40.1579 42.0415 51.6809 39.7842 62.4504 35.6459C63.2353 35.3324 64.0517 35.0189 64.8994 35.0816C66.0925 35.1757 67.0344 36.0221 67.631 37.0881C67.788 37.3702 67.9136 37.6524 68.0078 37.9659C68.9183 40.8502 67.5996 44.142 65.4018 46.3052Z" fill="#943C1E"/>
<path d="M59.7501 49.1268C51.9635 52.3246 43.8628 55.1775 35.4482 55.4283C29.9536 55.5851 24.4904 54.5818 19.0899 53.61C14.0349 52.7008 8.35187 51.1019 7.37853 45.2393C7.31574 44.8944 7.28434 44.5496 7.25294 44.2361C7.19015 43.1388 7.34713 42.2609 7.69251 41.5712C5.87144 42.1355 4.83531 43.515 4.9923 46.023C5.02369 46.3366 5.05509 46.6501 5.11789 47.0263C6.09122 52.8889 11.8056 54.4878 16.8293 55.397C22.2297 56.3688 27.6929 57.3721 33.1876 57.2153C41.6022 56.9958 49.7342 54.1429 57.4895 50.9138C60.3153 49.7538 63.2039 48.4684 65.3704 46.3052C63.6749 47.4652 61.6968 48.3117 59.7501 49.1268Z" fill="#733010"/>
<path d="M38.902 53.6727C37.9914 53.6727 37.9914 55.0835 38.902 55.0835C39.7811 55.0835 39.8125 53.6727 38.902 53.6727Z" fill="#DB511F"/>
<path d="M47.4108 52.9202C46.877 52.9202 46.877 53.7667 47.4108 53.7667C47.9445 53.7667 47.9445 52.9202 47.4108 52.9202Z" fill="#DB511F"/>
<path d="M48.5725 49.503C48.5411 49.503 48.5097 49.503 48.5097 49.503C48.1329 49.5657 48.1329 50.2241 48.5097 50.2868C48.5411 50.2868 48.5725 50.2868 48.5725 50.2868C48.8237 50.3181 49.1063 50.1927 49.1063 49.8792C49.1063 49.6284 48.8237 49.4716 48.5725 49.503Z" fill="#DB511F"/>
<path d="M42.6383 54.5505C42.0732 54.5505 42.0732 55.4283 42.6383 55.4283C43.2035 55.4283 43.2035 54.5505 42.6383 54.5505Z" fill="#DB511F"/>
<path d="M26.4056 53.704C26.1545 53.4532 25.7777 53.4846 25.5265 53.704C25.4637 53.7667 25.4009 53.8608 25.3381 53.9235C25.0555 54.4564 25.6207 55.0207 26.1545 54.7386C26.2487 54.7072 26.3115 54.6445 26.3742 54.5505C26.6568 54.331 26.6568 53.9548 26.4056 53.704Z" fill="#DB511F"/>
<path d="M28.9488 55.2089C28.6663 54.9267 27.9755 55.1148 28.0383 55.5851C28.0383 55.6164 28.0383 55.6478 28.0383 55.6791C28.0383 55.8986 28.2581 56.118 28.4779 56.118C28.5093 56.118 28.5407 56.118 28.5721 56.118C28.7919 56.1494 28.9802 55.9613 29.043 55.8045C29.1372 55.5851 29.1058 55.3656 28.9488 55.2089Z" fill="#DB511F"/>
<path d="M22.7321 55.1148C22.4495 54.9581 22.0413 55.2402 22.1669 55.5537C22.1669 55.5851 22.1669 55.5851 22.1983 55.6164C22.2611 55.7732 22.4181 55.8986 22.6065 55.8359C22.6379 55.8359 22.6379 55.8359 22.6693 55.8045C22.9519 55.7105 23.0147 55.2716 22.7321 55.1148Z" fill="#DB511F"/>
<path d="M14.286 53.3591C14.286 53.3278 14.286 53.3278 14.2547 53.2964C14.1291 52.8262 13.4069 52.8262 13.2813 53.2964C13.2813 53.3278 13.2813 53.3278 13.2499 53.3591C13.1871 53.6726 13.4069 54.0175 13.7523 54.0175C14.0977 54.0175 14.3488 53.6726 14.286 53.3591Z" fill="#DB511F"/>
<path d="M51.3041 50.5062C50.739 50.5062 50.739 51.384 51.3041 51.384C51.8693 51.384 51.8693 50.5062 51.3041 50.5062Z" fill="#DB511F"/>
<path d="M61.7596 47.2457C61.0374 47.2457 61.0374 48.3744 61.7596 48.3744C62.5132 48.3744 62.5132 47.2457 61.7596 47.2457Z" fill="#DB511F"/>
<path d="M63.2667 45.6782C62.8271 45.6782 62.8271 46.3679 63.2667 46.3679C63.7063 46.3679 63.7063 45.6782 63.2667 45.6782Z" fill="#DB511F"/>
<path d="M64.7738 45.1766C64.4284 45.1766 64.4284 45.7095 64.7738 45.7095C65.0878 45.7095 65.0878 45.1766 64.7738 45.1766Z" fill="#DB511F"/>
<path d="M56.6731 50.0046C56.2022 50.0046 56.2022 50.7257 56.6731 50.7257C57.1441 50.7257 57.1441 50.0046 56.6731 50.0046Z" fill="#DB511F"/>
<path d="M15.4478 37.7151C14.0977 38.7183 12.2138 38.1853 10.6753 37.4956C9.16821 36.7745 7.56692 35.8654 5.93424 36.2102C4.30155 41.6339 3.76778 48.4684 6.78198 53.5473C7.40993 54.6132 9.388 58.2185 10.4869 58.5947C11.7428 59.0023 12.8418 57.7483 13.7837 56.8077C15.2908 55.3029 17.1747 54.2997 19.1527 53.5159C21.3192 52.6694 23.6112 52.1051 25.7149 51.5094C31.1153 50.0046 36.5157 48.5311 41.9162 47.0263C45.8723 45.929 49.8912 44.8317 54.0043 44.8317C58.4628 44.8317 62.6074 45.8976 66.7205 47.6533C67.8822 48.1549 69.3893 48.6565 70.3312 47.7787C71.022 47.1517 71.022 46.1171 70.9592 45.1766C70.551 40.1291 69.3265 35.7086 65.9669 31.8525C65.3076 31.1 64.6168 30.3163 63.7063 29.9401C62.4818 29.4384 61.0689 29.7206 59.7815 30.0028C54.8835 31.1 50.425 32.8557 45.6211 34.2038C35.825 36.9313 24.3334 39.6588 14.1919 37.6524C14.3175 37.6524 14.4431 37.6524 14.5686 37.6524" fill="#FBBB3B"/>
<path d="M18.7446 53.704C16.0129 55.0834 13.2499 56.5256 10.4555 54.3624C8.35187 52.7635 6.15402 49.7224 5.46327 47.183C4.9923 45.4274 4.89811 43.609 4.80391 41.7907C3.23402 44.675 5.24348 50.9451 6.78198 53.5473C7.40993 54.6132 9.388 58.2185 10.4869 58.5947C11.7428 59.0023 12.8418 57.7483 13.7837 56.8077C15.1966 55.397 16.9235 54.4251 18.7446 53.704Z" fill="#C99630"/>
<path d="M66.1239 40.9442C66.7519 40.2858 67.3484 39.5648 67.7252 38.7183C68.0706 37.8718 68.1648 36.9626 68.1648 36.0535C68.1648 35.7086 68.1334 35.3638 67.9764 35.0502C67.8194 34.7367 67.474 34.5173 67.1286 34.58C66.9403 34.6113 66.8147 34.7367 66.6577 34.8308C63.3609 37.4329 59.7816 39.6588 55.9824 41.4458C55.4173 41.728 54.8207 41.9788 54.3497 42.449C53.8788 42.888 53.5962 43.5777 53.7846 44.1733C54.2869 45.8976 58.7768 45.0825 60.0013 44.7377C62.3248 44.0793 64.4284 42.6685 66.1239 40.9442Z" fill="#DBA334"/>
<path d="M10.3614 47.9668C12.8732 50.036 16.5781 50.663 19.7179 51.0392C21.6018 51.29 23.5798 51.3214 25.4323 50.8824C26.1231 50.7257 30.3304 49.2835 30.1106 48.2803C30.299 49.1895 31.5235 49.3776 32.4654 49.3776C33.4074 49.3462 34.4435 49.3149 35.1343 48.6879C33.7841 46.8695 32.2456 44.9571 30.0478 44.4555C29.4198 44.3301 28.7605 44.2987 28.1011 44.2987C25.5579 44.2674 23.0147 44.3301 20.4715 44.2047C18.148 44.0793 15.7618 43.2642 13.3755 43.2642C12.4336 43.2642 10.016 43.2955 9.48221 42.5117C9.04264 42.6999 8.60307 42.7939 8.1321 42.7626C7.75533 44.142 8.28909 45.6468 9.16823 46.7755C9.54501 47.2144 9.92178 47.6219 10.3614 47.9668Z" fill="#C99630"/>
<path d="M69.7033 43.7031C69.6091 42.8566 69.5463 41.9474 68.9811 41.2577C68.7927 41.0383 68.3846 41.2264 68.416 41.5085C68.4474 42.5431 69.0125 43.515 69.1067 44.5809C69.1381 44.9885 69.2323 45.8349 68.9497 46.1798C68.3532 46.8695 67.3484 46.556 66.6577 46.2425C66.4693 46.1485 66.3123 46.4306 66.5007 46.5247C67.5054 47.1203 69.0753 47.716 69.6405 46.2112C69.8917 45.4587 69.7975 44.4869 69.7033 43.7031Z" fill="#FFEECC"/>
<path d="M68.259 38.687C67.9136 38.687 67.5682 39.0005 67.5682 39.3767C67.5996 39.7529 67.8822 40.0664 68.259 40.0664C68.6043 40.0664 68.9497 39.7529 68.9497 39.3767C68.9183 39.0005 68.6357 38.687 68.259 38.687Z" fill="#FFEECC"/>
<path d="M18.3992 51.6035C17.0177 51.6035 15.5106 52.4813 14.3489 53.2024C13.1557 53.9235 11.8998 54.864 11.1777 56.0553C11.0835 56.1807 11.2719 56.3688 11.3975 56.2748C12.5592 55.5223 13.5325 54.5818 14.757 53.8921C15.9815 53.2024 17.3945 52.9829 18.5876 52.3246C18.9329 52.1364 18.776 51.6035 18.3992 51.6035Z" fill="#FFEECC"/>
<path d="M20.6598 51.1019C20.1575 51.1019 20.0633 51.7289 20.4087 51.9797L20.4714 52.0111C20.5656 52.0738 20.7226 52.0738 20.8168 52.0111C20.8482 52.0111 20.8482 51.9797 20.8796 51.9797C21.2564 51.6976 21.1308 51.1019 20.6598 51.1019Z" fill="#FFEECC"/>
<path d="M9.0426 44.2047C12.2138 48.9387 16.7979 49.2522 21.0052 49.0954C22.6379 49.0327 24.3334 48.9387 25.9346 48.1863C27.0336 47.6846 28.8546 46.8068 29.5768 45.2393C31.6805 40.5366 26.3114 39.0945 24.8357 38.4361C21.2878 36.8059 17.6142 36.0535 13.9721 36.2102C11.1777 36.3043 4.55271 37.4643 9.0426 44.2047Z" fill="#F55218"/>
<path d="M9.0426 41.2577C12.2138 45.9917 16.7979 46.3052 21.0052 46.1484C23.517 46.0544 26.1544 45.8036 28.2895 43.5463C28.7604 43.0447 29.2314 42.3864 29.4198 41.4772C29.6396 40.3172 29.2942 39.0005 28.7604 38.1853C28.2267 37.3702 27.5359 36.9313 26.8452 36.5237C22.7007 34.1724 18.305 33.0752 13.9093 33.2633C11.1777 33.3573 4.55271 34.5486 9.0426 41.2577Z" fill="#F56F40"/>
<path d="M17.4572 45.5841C20.0947 46.3052 22.9205 46.4933 25.5893 45.8349C25.6835 45.8036 25.7777 45.7722 25.8405 45.7095C25.9975 45.4901 25.7463 45.2393 25.4951 45.1139C22.7635 43.7344 19.8121 42.8253 16.7979 42.355C15.2594 42.1042 13.6895 41.9788 12.1196 41.9788C11.7114 41.9788 10.6125 41.822 10.6439 42.5117C10.6753 42.9507 12.0568 43.4209 12.4022 43.609C14.0349 44.4242 15.699 45.1139 17.4572 45.5841Z" fill="#CF5930"/>
<path d="M29.514 46.1484C33.062 50.6003 37.6774 50.5376 41.8534 50.0046C43.486 49.7851 45.1501 49.5657 46.6886 48.6879C47.7248 48.0922 49.483 47.089 50.0482 45.4587C51.7437 40.5993 46.2805 39.6275 44.742 39.0631C41.0684 37.7464 37.3635 37.3075 33.7213 37.7778C30.9583 38.0913 24.4589 39.8156 29.514 46.1484Z" fill="#F55218"/>
<path d="M29.2628 43.2328C32.8108 47.6846 37.4262 47.6219 41.6022 47.089C44.114 46.7755 46.72 46.3052 48.6667 43.8912C49.1062 43.3582 49.5144 42.6685 49.6086 41.728C49.7342 40.5367 49.2946 39.2826 48.6981 38.4988C48.1015 37.7151 47.3794 37.3389 46.6572 37.0254C42.3243 35.0189 37.8344 34.2978 33.5015 34.8621C30.7071 35.1757 24.2077 36.8686 29.2628 43.2328Z" fill="#F56F40"/>
<path d="M40.723 46.556C43.1093 46.0544 45.4641 45.3333 47.7247 44.4242C48.2585 44.2047 48.7923 43.9853 49.2318 43.609C49.6714 43.2328 49.9854 42.6685 49.9226 42.1042C49.2004 42.0415 48.4783 42.1669 47.7561 42.2923C44.5222 42.8566 41.2882 43.515 38.0856 44.2674C37.2693 44.4555 36.4843 44.6436 35.6994 44.8317C35.1656 44.9571 33.8155 45.0198 33.4387 45.4274C32.3712 46.5874 34.9144 46.9636 35.511 47.0263C37.2379 47.183 38.9961 46.9322 40.723 46.556Z" fill="#CF5930"/>
<path d="M52.2775 43.9539C57.4895 46.2425 61.5398 44.0793 64.9936 41.6653C66.3437 40.7248 67.7252 39.7529 68.6671 38.248C69.3265 37.2448 70.394 35.5205 70.1428 33.8276C69.3893 28.7487 64.0831 30.379 62.4818 30.5984C58.6198 31.1314 55.1347 32.4481 52.1205 34.5486C49.8284 36.1475 44.8676 40.6621 52.2775 43.9539Z" fill="#F55218"/>
<path d="M50.7076 41.4772C55.9196 43.7658 59.9699 41.6026 63.4237 39.1886C65.496 37.7464 67.5682 36.1162 68.1962 33.0752C68.3218 32.3854 68.3846 31.5703 68.0392 30.7238C67.5996 29.6266 66.6263 28.686 65.7157 28.2785C64.8366 27.8709 63.9889 27.8709 63.2039 27.9023C58.4314 28.1531 54.1299 29.5639 50.5192 32.0719C48.2585 33.6708 43.2977 38.1853 50.7076 41.4772Z" fill="#F56F40"/>
<path d="M55.2916 41.822C58.714 40.662 61.791 38.6869 64.6482 36.5237C65.4959 35.8654 66.3751 35.207 67.0344 34.3292C67.6938 33.4827 68.1648 32.4168 68.1334 31.3509C68.1334 30.9119 67.9136 30.379 67.474 30.3476C67.2228 30.3476 67.003 30.5044 66.7832 30.6925C64.2714 32.8557 61.3514 34.4546 58.4942 36.1475C57.0185 36.994 55.5742 37.8718 54.1613 38.8751C53.5962 39.2826 50.6134 41.1323 50.7704 41.8534C51.0215 42.982 54.7265 42.0101 55.2916 41.822Z" fill="#CF5930"/>
<path d="M65.4018 35.4265C63.2353 37.5897 60.3467 38.8751 57.5209 40.035C49.7342 43.2328 41.6336 46.0858 33.219 46.3366C27.7243 46.4933 22.2611 45.4901 16.8607 44.5182C11.8056 43.609 6.12262 42.0101 5.14929 36.1475C5.08649 35.8027 5.05509 35.4578 5.0237 35.1443C4.77251 31.3195 7.31574 30.0968 11.1463 30.4417C16.9863 30.9746 22.7007 31.633 28.6035 31.4763C40.1579 31.1628 51.6809 28.9055 62.4504 24.7672C63.2353 24.4537 64.0517 24.1402 64.8994 24.2029C66.0925 24.2969 67.0344 25.1434 67.631 26.2093C67.788 26.4915 67.9136 26.7736 68.0078 27.0871C68.9183 29.9714 67.5996 33.2633 65.4018 35.4265Z" fill="#943C1E"/>
<path d="M59.7501 38.2167C51.9635 41.4145 43.8628 44.2674 35.4482 44.5182C29.9536 44.675 24.4904 43.6717 19.0899 42.6999C14.0349 41.7907 8.35187 40.1918 7.37853 34.3292C7.31574 33.9843 7.28434 33.6395 7.25294 33.326C7.19015 32.2287 7.34713 31.3509 7.69251 30.6611C5.87144 31.2255 4.83531 32.6049 4.9923 35.113C5.02369 35.4265 5.05509 35.74 5.11789 36.1162C6.09122 41.9788 11.8056 43.5777 16.8293 44.4869C22.2297 45.4587 27.6929 46.462 33.1876 46.3052C41.6022 46.0858 49.7342 43.2328 57.4895 40.0037C60.3153 38.8437 63.2039 37.5583 65.3704 35.3951C63.6749 36.5551 61.6968 37.4329 59.7501 38.2167Z" fill="#733010"/>
<path d="M38.902 42.7939C37.9914 42.7939 37.9914 44.2047 38.902 44.2047C39.7811 44.2047 39.8125 42.7939 38.902 42.7939Z" fill="#DB511F"/>
<path d="M47.4108 42.0415C46.877 42.0415 46.877 42.888 47.4108 42.888C47.9445 42.8566 47.9445 42.0415 47.4108 42.0415Z" fill="#DB511F"/>
<path d="M48.5725 38.6243C48.5411 38.6243 48.5097 38.6243 48.5097 38.6243C48.1329 38.687 48.1329 39.3453 48.5097 39.408C48.5411 39.408 48.5725 39.408 48.5725 39.408C48.8237 39.4394 49.1063 39.314 49.1063 39.0005C49.1063 38.7183 48.8237 38.5929 48.5725 38.6243Z" fill="#DB511F"/>
<path d="M42.6383 43.6717C42.0732 43.6717 42.0732 44.5496 42.6383 44.5496C43.2035 44.5182 43.2035 43.6717 42.6383 43.6717Z" fill="#DB511F"/>
<path d="M26.4056 42.8253C26.1545 42.5745 25.7777 42.6058 25.5265 42.8253C25.4637 42.888 25.4009 42.982 25.3381 43.0447C25.0555 43.5777 25.6207 44.142 26.1545 43.8599C26.2487 43.8285 26.3115 43.7658 26.3742 43.6718C26.6568 43.4523 26.6568 43.0447 26.4056 42.8253Z" fill="#DB511F"/>
<path d="M28.9488 44.3301C28.6663 44.048 27.9755 44.2361 28.0383 44.7063C28.0383 44.7377 28.0383 44.769 28.0383 44.8004C28.0383 45.0198 28.2581 45.2393 28.4779 45.2393C28.5093 45.2393 28.5407 45.2393 28.5721 45.2393C28.7919 45.2706 28.9802 45.0825 29.043 44.9258C29.1372 44.7063 29.1058 44.4555 28.9488 44.3301Z" fill="#DB511F"/>
<path d="M22.7321 44.2047C22.4495 44.048 22.0413 44.3301 22.1669 44.6436C22.1669 44.675 22.1669 44.675 22.1983 44.7063C22.2611 44.8631 22.4181 44.9885 22.6065 44.9258C22.6379 44.9258 22.6379 44.9258 22.6693 44.8944C22.9519 44.8317 23.0147 44.3928 22.7321 44.2047Z" fill="#DB511F"/>
<path d="M14.286 42.4491C14.286 42.4177 14.286 42.4177 14.2547 42.3864C14.1291 41.9161 13.4069 41.9161 13.2813 42.3864C13.2813 42.4177 13.2813 42.4177 13.2499 42.4491C13.1871 42.7626 13.4069 43.1074 13.7523 43.1074C14.0977 43.1074 14.3488 42.7939 14.286 42.4491Z" fill="#DB511F"/>
<path d="M51.3041 39.6275C50.739 39.6275 50.739 40.5053 51.3041 40.5053C51.8693 40.5053 51.8693 39.6275 51.3041 39.6275Z" fill="#DB511F"/>
<path d="M61.7596 36.367C61.0374 36.367 61.0374 37.4956 61.7596 37.4956C62.5132 37.4956 62.5132 36.367 61.7596 36.367Z" fill="#DB511F"/>
<path d="M63.2667 34.7995C62.8271 34.7995 62.8271 35.4892 63.2667 35.4892C63.7063 35.4892 63.7063 34.7995 63.2667 34.7995Z" fill="#DB511F"/>
<path d="M64.7738 34.2665C64.4284 34.2665 64.4284 34.7995 64.7738 34.7995C65.0878 34.7995 65.0878 34.2665 64.7738 34.2665Z" fill="#DB511F"/>
<path d="M56.6731 39.0945C56.2022 39.0945 56.2022 39.8156 56.6731 39.8156C57.1441 39.8156 57.1441 39.0945 56.6731 39.0945Z" fill="#DB511F"/>
<path d="M64.6482 29.4385C65.4018 29.8147 65.9355 30.7552 65.8099 31.633C65.5901 32.9184 64.3342 33.8276 63.0469 34.047C61.7596 34.2665 60.4409 33.953 59.185 33.6395C59.4676 36.2416 57.4581 38.9064 54.8521 39.314C52.2461 39.7215 49.483 37.8718 48.9179 35.3011C48.8551 36.8373 46.9084 37.9659 45.5583 37.2448C47.2538 38.7497 45.3699 41.822 43.1407 41.9788C40.88 42.1356 38.9334 40.5367 37.2379 39.0632C38.4624 41.4145 36.0134 44.5182 33.3445 44.3928C30.7699 44.2361 28.7605 41.822 28.4465 39.2826C28.5093 40.5367 27.2534 41.6966 25.9347 41.6966C24.5532 41.728 23.2972 40.7248 22.6065 39.5021C23.3914 41.8534 21.225 44.6123 18.7445 44.4555C16.2955 44.2988 14.5058 41.2577 15.5734 39.0318C14.1919 41.3204 11.4289 43.0761 8.88562 42.2923C6.53079 41.5712 5.49466 37.9972 7.19014 36.4611C6.68778 36.7746 6.15401 36.9627 5.58885 37.0881C5.33767 33.2633 7.88089 32.0406 11.7114 32.3854C17.5514 32.9184 23.2658 33.5768 29.1686 33.42C40.723 33.1065 52.2461 30.8492 63.0155 26.7109C63.8005 26.3974 64.6168 26.0839 65.4646 26.1466C66.6577 26.2407 67.5996 27.0871 68.1962 28.1531C68.102 28.3412 67.9764 28.5293 67.8194 28.686C66.9403 29.3758 65.7785 29.5012 64.6482 29.4385Z" fill="#733010"/>
<path d="M68.2275 24.0775C69.609 23.9521 70.1742 26.272 69.1067 27.2752C68.2903 28.0277 67.1286 28.1531 65.9983 28.0904C66.7518 28.4666 67.2856 29.4071 67.16 30.2849C66.9402 31.5703 65.6843 32.4795 64.397 32.6989C63.1097 32.9184 61.791 32.6049 60.5351 32.2914C60.8176 34.8935 58.8082 37.5583 56.2022 37.9659C53.5961 38.3734 50.8331 36.5237 50.268 33.953C50.2052 35.4892 48.2585 36.6178 46.9084 35.8967C48.6039 37.4016 46.72 40.474 44.4908 40.6307C42.2301 40.7875 40.2834 39.1886 38.588 37.7151C39.8125 40.0664 37.3634 43.1701 34.6946 43.0134C32.1514 42.888 30.1733 40.5053 29.7966 37.9659C29.7966 39.1886 28.5721 40.2859 27.2847 40.3172C25.8718 40.3486 24.6473 39.3453 23.9566 38.1226C24.7415 40.474 22.5751 43.2328 20.0946 43.0761C17.6456 42.9193 15.8559 39.8783 16.9235 37.6524C15.5419 39.941 12.7789 41.6966 10.2357 40.9129C7.88087 40.1918 6.84474 36.6178 8.54023 35.0816C5.90281 36.7119 1.6955 35.4265 0.847756 32.3541C-0.188373 28.5293 2.73163 27.2125 5.65163 26.9617C6.56216 26.8677 7.4413 26.899 8.22625 26.9931C13.3441 27.4947 18.4619 27.6515 23.5798 27.3379C33.6899 26.7109 43.7058 24.4537 53.0938 20.5975C57.1441 18.9359 61.32 16.9295 65.6215 16.5846C66.5634 16.5219 67.474 16.5219 68.4473 16.616C70.5824 16.8354 73.0314 18.0581 73.0942 20.19C73.0942 22.4472 70.4882 23.764 68.2275 24.0775Z" fill="#39B54A"/>
<path d="M38.0228 39.5961C35.4482 39.4394 33.4387 37.0254 33.1248 34.4859C33.1876 35.74 31.9316 36.9 30.6129 36.9313C29.2314 36.9627 27.9755 35.9594 27.2848 34.7368C27.8813 36.5865 26.6568 38.7183 24.8985 39.4394C25.5265 40.0037 26.3428 40.3486 27.1906 40.3486C28.4779 40.3172 29.7652 39.1886 29.7024 37.9032C30.0164 40.4426 32.0258 42.888 34.6005 43.0134C36.6099 43.1074 38.4938 41.4145 38.7764 39.5648C38.5566 39.5961 38.3054 39.6275 38.0228 39.5961Z" fill="#279135"/>
<path d="M71.5243 20.6916C72.0895 20.5662 72.529 20.8797 72.8116 21.3499C72.9372 21.0364 73 20.7229 73.0314 20.3467C72.4976 20.5035 71.9953 20.6289 71.5243 20.6916Z" fill="#279135"/>
<path d="M23.4542 39.6588C20.9738 39.5021 19.2155 36.4611 20.283 34.2351C18.9015 36.5238 16.1385 38.2794 13.5953 37.4956C11.2091 36.7746 10.2043 33.1692 11.9312 31.633C9.26239 33.326 5.02368 32.0092 4.17594 28.9369C3.98755 28.2785 3.92476 27.7142 3.95615 27.2126C1.69551 27.7769 -0.094168 29.219 0.753574 32.3541C1.60132 35.4265 5.84003 36.7119 8.50884 35.0503C6.75056 36.5865 7.78669 40.1918 10.1729 40.9129C12.7162 41.6966 15.5106 39.9723 16.8607 37.6524C15.7931 39.8783 17.5514 42.9193 20.0319 43.0761C21.9785 43.2015 23.7054 41.5085 23.988 39.6588C23.831 39.6588 23.6426 39.6902 23.4542 39.6588Z" fill="#279135"/>
<path d="M41.9161 34.2978C42.7953 35.9908 41.7905 38.0599 40.1265 39.0318C41.4138 39.9723 42.8267 40.7248 44.3966 40.5994C46.092 40.474 47.5677 38.7183 47.4736 37.1821C45.4013 37.1821 43.5488 35.7086 41.9161 34.2978Z" fill="#279135"/>
<path d="M63.8946 28.8428C64.0516 30.2222 63.5493 31.633 62.6387 32.6989C63.2039 32.7616 63.7691 32.7616 64.3342 32.6676C65.6215 32.4481 66.8774 31.539 67.0972 30.2536C67.16 29.9401 67.0972 29.6266 67.003 29.3131C65.9983 29.3758 64.9308 29.1249 63.8946 28.8428Z" fill="#279135"/>
<path d="M59.5618 34.5486C56.9557 34.9562 54.1927 33.1065 53.6276 30.5357C53.5648 32.0719 51.6181 33.2006 50.268 32.4795C51.053 33.1692 51.053 34.1724 50.6448 35.0816C51.6495 37.0254 53.9416 38.2794 56.1394 37.9345C58.0233 37.621 59.5932 36.1475 60.2211 34.3605C60.0013 34.4546 59.7816 34.5173 59.5618 34.5486Z" fill="#279135"/>
<path d="M65.4331 23.7012C64.083 25.9899 61.4142 27.1185 58.871 27.9963C49.3888 31.2568 39.4043 33.0438 29.3884 33.3573C23.046 33.5454 12.9987 34.2665 7.75528 29.7833C6.75055 28.9368 6.0598 27.965 5.55743 26.9617C6.46797 26.8677 7.34711 26.899 8.13206 26.9931C13.2499 27.4947 18.3678 27.6514 23.4856 27.3379C33.5957 26.7109 43.6116 24.4537 52.9996 20.5975C57.0499 18.9359 61.2258 16.9295 65.5273 16.5846C66.4693 18.9359 66.689 21.5694 65.4331 23.7012Z" fill="#279135"/>
<path d="M59.2792 26.805C61.791 25.9272 64.4912 24.8299 65.8413 22.5099C67.5054 19.657 66.5321 15.9576 64.868 13.0733C58.9966 3.13509 46.0921 -0.501614 34.5377 0.0627015C25.6207 0.501613 16.0443 3.13509 10.1101 10.189C5.96561 15.1111 2.38626 23.6385 8.16346 28.592C13.4069 33.0752 23.4542 32.3854 29.7966 32.166C39.8125 31.8525 49.797 30.0655 59.2792 26.805Z" fill="#D48524"/>
<path d="M36.3901 28.8741C30.0478 29.0936 20.0005 29.7833 14.757 25.3001C8.97981 20.3467 12.5592 11.8193 16.6723 6.92854C18.148 5.20424 19.8121 3.73075 21.6645 2.47672C17.2374 4.07561 13.1871 6.55233 10.1101 10.189C5.96561 15.1111 2.38626 23.6385 8.16346 28.592C13.4069 33.0751 23.4542 32.3854 29.7966 32.166C39.8125 31.8525 49.797 30.0655 59.2792 26.805C61.2258 26.1466 63.2981 25.3001 64.7424 23.8893C55.6056 26.899 45.9979 28.592 36.3901 28.8741Z" fill="#CC6C23"/>
<path d="M57.5837 33.0125C57.3639 34.1097 56.9243 35.3324 55.6998 35.6146C54.1927 35.9281 52.9682 34.9249 52.4344 33.6081C52.3717 33.42 52.0891 33.4827 52.1205 33.7022C52.6542 37.7151 58.9652 37.1194 59.028 33.2319C59.028 32.3854 57.7721 32.1973 57.5837 33.0125Z" fill="#4ED962"/>
<path d="M69.4207 17.4938C68.8555 17.4624 68.4787 18.2775 68.9497 18.6538C69.5463 19.1554 71.2732 19.657 70.4568 20.6602C69.7033 21.6321 68.4473 21.5067 67.474 22.0083C67.2856 22.1023 67.2228 22.2904 67.2542 22.4786C67.1914 22.5726 67.1914 22.7294 67.2856 22.8234C67.7252 23.325 68.1648 23.9207 68.4159 24.5164C68.1648 24.5791 67.9764 24.7985 68.0078 25.0807C68.1334 26.9304 65.7471 26.6482 64.554 26.5855C64.1458 26.5542 64.1458 27.1185 64.4598 27.2439C64.8366 27.4006 65.2448 27.526 65.6215 27.6201C65.5587 27.7455 65.5273 27.9022 65.5901 28.059C65.6843 28.3412 65.9041 28.5293 66.1867 28.5293C67.8822 28.5606 69.5149 27.432 69.7661 25.7077C69.8916 24.7985 69.6091 23.7639 69.0125 23.0742C70.3312 22.9175 71.7127 21.9142 72.1523 20.911C72.8117 19.2181 71.0534 17.5565 69.4207 17.4938Z" fill="#4ED962"/>
<path d="M66.4693 29.1249C66.2181 28.5293 65.4331 28.9368 65.3703 29.4385C65.2447 30.4417 65.0878 31.539 63.9574 31.8838C62.8899 32.2287 62.0422 31.5076 61.2572 30.9119C60.9746 30.6925 60.6293 30.9119 60.6921 31.2568C60.6921 31.2882 60.6921 31.2882 60.6921 31.3195C60.4723 31.4449 60.3153 31.7271 60.3781 32.0406C60.8177 34.4546 58.9966 35.9281 57.0185 36.7119C56.6731 36.8373 56.5476 37.4643 57.0185 37.5583C59.6873 37.9972 61.634 35.2384 61.7596 32.7616C62.5759 33.2633 63.7063 33.3573 64.554 33.0438C66.0611 32.4795 67.1286 30.6298 66.4693 29.1249Z" fill="#4ED962"/>
<path d="M28.8233 7.2107C28.6663 6.83449 28.1011 6.52098 27.7557 6.92854C27.222 7.61826 27.3162 8.55879 27.5674 9.34256C27.6615 9.68742 28.1325 9.71877 28.3209 9.43661C28.6663 8.84095 29.1059 7.90042 28.8233 7.2107Z" fill="#FFCF85"/>
<path d="M42.7011 11.6312C42.3557 11.2863 42.1359 10.8161 42.1045 10.3458C42.0731 9.84418 41.4138 9.75012 41.2568 10.2204C40.9428 11.0355 41.194 11.9133 41.8219 12.509C42.3871 13.0733 43.2663 12.1955 42.7011 11.6312Z" fill="#FFCF85"/>
<path d="M20.0946 20.3153C19.6551 20.3781 19.4039 20.8797 19.3097 21.2872C19.2155 21.6634 19.2155 21.9769 19.2783 22.3532C19.3097 22.5413 19.5295 22.6667 19.6865 22.6667C19.8749 22.6667 20.0318 22.5413 20.0946 22.3532C20.1888 22.1337 20.3144 21.9142 20.4714 21.7575C20.6912 21.5067 20.8796 21.3186 20.911 20.9424C20.911 20.4721 20.5028 20.2526 20.0946 20.3153Z" fill="#FFCF85"/>
<path d="M57.0499 12.4776C56.6731 12.2582 56.2964 11.9447 56.2336 11.4744C56.2022 11.2863 56.108 11.1609 55.9196 11.1296C55.7626 11.0982 55.5742 11.2236 55.5428 11.3804C55.48 11.7879 55.48 12.1955 55.7312 12.5717C55.951 12.9166 56.2964 13.2301 56.7045 13.2928C57.1755 13.3868 57.4895 12.7598 57.0499 12.4776Z" fill="#FFCF85"/>
<path d="M51.0215 20.3154C50.5819 19.8451 50.1424 19.4375 49.8284 18.9046C49.6086 18.5597 49.1376 18.7165 49.1062 19.0927C49.0434 19.9078 49.3574 20.8483 49.9854 21.3499C50.7075 21.9456 51.7123 21.0051 51.0215 20.3154Z" fill="#FFCF85"/>
<path d="M35.8877 20.6916C35.6994 20.3154 35.04 20.4721 35.1028 20.911C35.2284 21.7888 35.2598 23.1056 36.1389 23.5758C36.2645 23.6385 36.3901 23.6072 36.4843 23.4818C36.9553 22.5726 36.2959 21.5067 35.8877 20.6916Z" fill="#FFCF85"/>
<path d="M14.2233 12.7284C14.1605 12.4149 13.8151 12.2895 13.5325 12.3209C12.936 12.4149 12.622 13.2614 12.4336 13.763C12.308 14.1079 12.0254 15.0484 12.6848 15.0798C13.2499 15.1111 13.4069 14.5468 13.6581 14.1392C13.9407 13.669 14.3175 13.2928 14.2233 12.7284Z" fill="#FFCF85"/>
<path d="M37.4263 22.3845C37.3007 22.1651 36.8925 22.1024 36.7669 22.3845C36.6099 22.7607 36.7355 23.6072 36.2017 23.764C35.511 23.9834 35.4168 22.604 35.3226 22.2278C35.2598 21.9143 34.7888 21.9143 34.726 22.2278C34.6004 22.8234 34.6004 23.4191 34.9458 23.9521C35.2284 24.391 35.7308 24.7045 36.2645 24.6731C36.7669 24.6418 37.1437 24.2969 37.3321 23.858C37.489 23.4504 37.6774 22.7921 37.4263 22.3845Z" fill="#CC6C23"/>
<path d="M20.9424 21.9769C20.7854 21.8202 20.597 21.8202 20.4086 21.9142C20.1261 22.0396 20.1261 22.3532 19.9063 22.5413C19.7493 22.6667 19.5295 22.7607 19.3411 22.6667C18.9015 22.5099 18.9957 21.7888 19.1213 21.444C19.1841 21.2559 18.9643 21.0364 18.776 21.0991C17.6456 21.4753 17.991 23.1056 18.8701 23.5758C19.3725 23.8266 19.9691 23.7639 20.44 23.4504C20.8796 23.1683 21.4134 22.4472 20.9424 21.9769Z" fill="#CC6C23"/>
<path d="M13.7209 14.0138C13.4069 14.4214 13.2813 14.9857 12.7476 15.1425C12.2766 15.2992 11.7428 14.9544 11.68 14.4841C11.6486 14.3273 11.3975 14.296 11.3347 14.4527C10.9893 15.2365 11.68 15.9889 12.465 16.0516C13.4069 16.1143 14.3803 15.2365 14.4745 14.3273C14.5059 13.9511 13.9721 13.7003 13.7209 14.0138Z" fill="#CC6C23"/>
<path d="M28.7605 9.1858C28.5407 9.71876 27.9755 10.095 27.4417 9.65606C26.9708 9.27985 27.0964 8.49608 27.0336 7.96311C27.0022 7.68095 26.6568 7.6496 26.5626 7.90041C26.1858 8.80959 26.3428 10.0323 27.3476 10.4712C28.1953 10.8474 29.357 10.3458 29.4826 9.3739C29.5768 8.90364 28.9488 8.71553 28.7605 9.1858Z" fill="#CC6C23"/>
<path d="M43.643 11.6939C43.5802 11.4744 43.4232 11.3804 43.2035 11.349C42.7953 11.3177 42.7639 11.7566 42.7953 12.0387C42.8267 12.3209 42.7639 12.6344 42.5441 12.8538C42.0417 13.3241 41.3196 12.6657 41.4766 12.1014C41.5394 11.882 41.2568 11.7252 41.1312 11.882C40.3463 12.6657 41.2254 13.8884 42.1987 13.9198C43.2035 13.9511 43.9884 12.6344 43.643 11.6939Z" fill="#CC6C23"/>
<path d="M51.5867 19.5943C51.3355 19.5002 50.9901 19.751 51.0215 20.0332C51.0843 20.5035 51.4611 21.1932 50.9274 21.5694C50.3622 21.977 49.7028 21.2872 49.4203 20.8483C49.3261 20.6916 49.0749 20.7229 49.0121 20.911C48.5725 22.1651 50.3622 22.9488 51.3355 22.4472C52.3089 21.9456 52.874 20.0332 51.5867 19.5943Z" fill="#CC6C23"/>
<path d="M57.9291 11.9447C57.6465 11.882 57.4267 12.0701 57.3953 12.3522C57.3953 12.5717 57.5209 12.7598 57.4581 12.9479C57.4267 13.136 57.2697 13.3241 57.1127 13.3868C56.5475 13.6376 56.0138 13.0106 55.6998 12.6344C55.5114 12.3836 55.166 12.6657 55.2288 12.9165C55.4486 13.9198 56.6731 14.7349 57.6465 14.2019C58.3058 13.8571 59.028 12.2582 57.9291 11.9447Z" fill="#CC6C23"/>
<path d="M68.1334 36.5865C67.6938 37.4329 67.16 38.1853 66.5007 38.8437C65.8099 39.5334 65.025 39.9723 64.24 40.5053C64.0517 40.6307 64.1772 40.9756 64.397 40.8815C66.2181 40.2545 67.7566 38.5302 68.6357 36.9C68.8555 36.5551 68.3217 36.2416 68.1334 36.5865Z" fill="#FFEECC"/>
<path d="M69.7033 35.0816C69.6719 34.9562 69.6091 34.9248 69.4835 34.8621C69.3579 34.8308 69.2009 34.8935 69.1381 34.9875C69.1381 35.0189 69.1067 35.0189 69.1067 35.0503C68.9811 35.3011 69.2323 35.5519 69.4835 35.4265C69.5149 35.4265 69.5149 35.3951 69.5463 35.3951C69.6719 35.3638 69.7347 35.1757 69.7033 35.0816Z" fill="#FFEECC"/>
<path d="M46.877 47.089C45.8723 47.4338 44.9931 48.0295 43.957 48.3117C42.7953 48.6252 41.6336 48.6565 40.4405 48.7192C40.2207 48.7192 40.1265 49.0954 40.3777 49.1268C42.4499 49.5657 45.5897 49.0641 47.1282 47.4966C47.2852 47.3398 47.1282 46.9949 46.877 47.089Z" fill="#FFEECC"/>
<path d="M48.3841 45.9604C47.9759 45.9604 47.9759 46.6187 48.3841 46.6187C48.7923 46.6187 48.7923 45.9604 48.3841 45.9604Z" fill="#FFEECC"/>
<path d="M24.5217 46.9009C23.517 46.7755 22.5751 47.2144 21.6331 47.4025C20.3458 47.6847 19.2469 47.5906 17.9596 47.3084C17.8026 47.2771 17.7398 47.4652 17.8654 47.5279C18.7445 48.1236 19.8121 48.1549 20.8482 48.0295C22.0727 47.8728 23.4856 47.622 24.6159 47.1203C24.7101 47.0576 24.6159 46.9009 24.5217 46.9009Z" fill="#FFEECC"/>
</g>
<defs>
<clipPath id="clip0">
<rect width="73" height="68" fill="white"/>
</clipPath>
</defs>
</svg>
